<svg xmlns="http://www.w3.org/2000/svg" xmlns:xlink="http://www.w3.org/1999/xlink" width="1920" zoomAndPan="magnify" viewBox="0 0 1440 809.999993" height="1080" preserveAspectRatio="xMidYMid meet" version="1.0"><defs><g/><clipPath id="3be12ea187"><path d="M 763.890625 0.945312 L 1440 0.945312 L 1440 677.054688 L 763.890625 677.054688 Z M 763.890625 0.945312 " clip-rule="nonzero"/></clipPath><clipPath id="87de925e62"><path d="M 1101.945312 0.945312 C 915.246094 0.945312 763.890625 152.296875 763.890625 339 C 763.890625 525.703125 915.246094 677.054688 1101.945312 677.054688 C 1288.648438 677.054688 1440 525.703125 1440 339 C 1440 152.296875 1288.648438 0.945312 1101.945312 0.945312 Z M 1101.945312 0.945312 " clip-rule="nonzero"/></clipPath><clipPath id="9d09ebeef2"><path d="M 0.890625 0.945312 L 677 0.945312 L 677 677.054688 L 0.890625 677.054688 Z M 0.890625 0.945312 " clip-rule="nonzero"/></clipPath><clipPath id="ae11fd651f"><path d="M 338.945312 0.945312 C 152.246094 0.945312 0.890625 152.296875 0.890625 339 C 0.890625 525.703125 152.246094 677.054688 338.945312 677.054688 C 525.648438 677.054688 677 525.703125 677 339 C 677 152.296875 525.648438 0.945312 338.945312 0.945312 Z M 338.945312 0.945312 " clip-rule="nonzero"/></clipPath><clipPath id="70d1f34b00"><rect x="0" width="677" y="0" height="678"/></clipPath><clipPath id="0e7715c0b3"><rect x="0" width="745" y="0" height="467"/></clipPath><clipPath id="52a69c74e0"><rect x="0" width="1440" y="0" height="678"/></clipPath></defs><g transform="matrix(1, 0, 0, 1, 0, 66)"><g clip-path="url(#52a69c74e0)"><g clip-path="url(#3be12ea187)"><g clip-path="url(#87de925e62)"><g transform="matrix(1, 0, 0, 1, 763, 0.000000000000028422)"><g clip-path="url(#70d1f34b00)"><g clip-path="url(#9d09ebeef2)"><g clip-path="url(#ae11fd651f)"><path fill="#4a9782" d="M 0.890625 0.945312 L 677 0.945312 L 677 677.054688 L 0.890625 677.054688 Z M 0.890625 0.945312 " fill-opacity="1" fill-rule="nonzero"/></g></g></g></g></g></g><g fill="#fff0d1" fill-opacity="1"><g transform="translate(744.266801, 430.729965)"><g/></g></g><g fill="#fff0d1" fill-opacity="1"><g transform="translate(810.710907, 430.729965)"><g><path d="M 25.953125 1.546875 C 22.660156 1.546875 19.570312 0.363281 16.6875 -2 C 13.800781 -4.375 12.359375 -7.722656 12.359375 -12.046875 C 12.359375 -16.171875 13.800781 -19.414062 16.6875 -21.78125 C 19.570312 -24.15625 22.660156 -25.34375 25.953125 -25.34375 C 29.453125 -25.34375 32.59375 -24.15625 35.375 -21.78125 C 38.15625 -19.414062 39.546875 -16.171875 39.546875 -12.046875 C 39.546875 -7.722656 38.15625 -4.375 35.375 -2 C 32.59375 0.363281 29.453125 1.546875 25.953125 1.546875 Z M 25.953125 1.546875 "/></g></g></g><g fill="#fff0d1" fill-opacity="1"><g transform="translate(845.626644, 430.729965)"><g><path d="M 50.359375 0 L 1.859375 -158.8125 L 21.3125 -158.8125 L 62.109375 -24.09375 L 62.421875 -24.09375 L 100.421875 -158.8125 L 120.8125 -158.8125 L 158.8125 -24.09375 L 159.4375 -24.09375 L 199.90625 -158.8125 L 219.6875 -158.8125 L 170.875 0 L 150.171875 0 L 110.609375 -135.03125 L 110 -135.03125 L 71.0625 0 Z M 50.359375 0 "/></g></g></g><g fill="#fff0d1" fill-opacity="1"><g transform="translate(1061.919047, 430.729965)"><g><path d="M 82.5 3.703125 C 67.050781 3.703125 53.710938 0.253906 42.484375 -6.640625 C 31.253906 -13.546875 22.601562 -23.175781 16.53125 -35.53125 C 10.457031 -47.894531 7.421875 -62.316406 7.421875 -78.796875 C 7.421875 -95.890625 10.507812 -110.613281 16.6875 -122.96875 C 22.863281 -135.332031 31.515625 -144.859375 42.640625 -151.546875 C 53.765625 -158.242188 66.742188 -161.59375 81.578125 -161.59375 C 97.640625 -161.59375 110.867188 -157.9375 121.265625 -150.625 C 131.671875 -143.3125 139.394531 -133.320312 144.4375 -120.65625 C 149.488281 -107.988281 152.015625 -93.414062 152.015625 -76.9375 L 26.578125 -76.9375 C 26.578125 -56.332031 31.722656 -40.265625 42.015625 -28.734375 C 52.316406 -17.203125 65.707031 -11.4375 82.1875 -11.4375 C 92.894531 -11.4375 101.546875 -13.441406 108.140625 -17.453125 C 114.734375 -21.472656 119.832031 -26.316406 123.4375 -31.984375 C 127.039062 -37.648438 129.460938 -42.847656 130.703125 -47.578125 L 149.859375 -47.578125 C 146.359375 -32.753906 139.046875 -20.5 127.921875 -10.8125 C 116.796875 -1.132812 101.65625 3.703125 82.5 3.703125 Z M 26.578125 -90.21875 L 132.859375 -90.21875 C 132.859375 -100.101562 131.003906 -109.375 127.296875 -118.03125 C 123.585938 -126.6875 117.921875 -133.691406 110.296875 -139.046875 C 102.679688 -144.398438 93.109375 -147.078125 81.578125 -147.078125 C 70.242188 -147.078125 60.507812 -144.5 52.375 -139.34375 C 44.238281 -134.195312 37.953125 -127.296875 33.515625 -118.640625 C 29.085938 -109.992188 26.773438 -100.519531 26.578125 -90.21875 Z M 26.578125 -90.21875 "/></g></g></g><g fill="#fff0d1" fill-opacity="1"><g transform="translate(1220.739449, 430.729965)"><g><path d="M 91.453125 3.703125 C 81.773438 3.703125 73.226562 1.898438 65.8125 -1.703125 C 58.394531 -5.304688 52.160156 -9.9375 47.109375 -15.59375 C 42.066406 -21.257812 38.101562 -27.285156 35.21875 -33.671875 L 34.609375 -33.671875 L 34.609375 0 L 15.453125 0 L 15.453125 -220.921875 L 34.609375 -220.921875 L 34.609375 -123.59375 L 35.21875 -123.59375 C 39.550781 -133.894531 46.398438 -142.800781 55.765625 -150.3125 C 65.140625 -157.832031 77.035156 -161.59375 91.453125 -161.59375 C 104.429688 -161.59375 116.070312 -158.296875 126.375 -151.703125 C 136.675781 -145.117188 144.8125 -135.644531 150.78125 -123.28125 C 156.757812 -110.925781 159.75 -96.097656 159.75 -78.796875 C 159.75 -61.492188 156.757812 -46.710938 150.78125 -34.453125 C 144.8125 -22.191406 136.675781 -12.765625 126.375 -6.171875 C 116.070312 0.410156 104.429688 3.703125 91.453125 3.703125 Z M 86.515625 -11.4375 C 102.378906 -11.4375 115.304688 -17.359375 125.296875 -29.203125 C 135.285156 -41.046875 140.28125 -57.578125 140.28125 -78.796875 C 140.28125 -100.210938 135.285156 -116.789062 125.296875 -128.53125 C 115.304688 -140.28125 102.378906 -146.15625 86.515625 -146.15625 C 77.242188 -146.15625 68.691406 -143.472656 60.859375 -138.109375 C 53.035156 -132.753906 46.753906 -125.082031 42.015625 -115.09375 C 37.285156 -105.101562 34.921875 -93.003906 34.921875 -78.796875 C 34.921875 -64.785156 37.285156 -52.734375 42.015625 -42.640625 C 46.753906 -32.546875 53.035156 -24.820312 60.859375 -19.46875 C 68.691406 -14.113281 77.242188 -11.4375 86.515625 -11.4375 Z M 86.515625 -11.4375 "/></g></g></g><g transform="matrix(1, 0, 0, 1, 0, 83)"><g clip-path="url(#0e7715c0b3)"><g fill="#004030" fill-opacity="1"><g transform="translate(0.00000622222, 376.664415)"><g><path d="M 248.59375 17.8125 L 214.515625 -16.265625 C 194.117188 -2.328125 170.113281 4.640625 142.5 4.640625 C 116.164062 4.640625 93.316406 -1.488281 73.953125 -13.75 C 54.597656 -26.007812 39.5625 -42.914062 28.84375 -64.46875 C 18.132812 -86.019531 12.78125 -110.738281 12.78125 -138.625 C 12.78125 -166.5 18.132812 -191.148438 28.84375 -212.578125 C 39.5625 -234.003906 54.597656 -250.847656 73.953125 -263.109375 C 93.316406 -275.378906 116.164062 -281.515625 142.5 -281.515625 C 168.832031 -281.515625 191.742188 -275.378906 211.234375 -263.109375 C 230.722656 -250.847656 245.757812 -234.003906 256.34375 -212.578125 C 266.925781 -191.148438 272.21875 -166.5 272.21875 -138.625 C 272.21875 -116.425781 268.734375 -96.097656 261.765625 -77.640625 C 254.796875 -59.179688 244.851562 -43.5 231.9375 -30.59375 L 264.46875 1.9375 Z M 142.5 -17.8125 C 162.894531 -17.8125 180.960938 -23.234375 196.703125 -34.078125 L 164.1875 -66.984375 L 180.0625 -82.484375 L 213.359375 -49.171875 C 223.421875 -59.753906 231.289062 -72.660156 236.96875 -87.890625 C 242.65625 -103.128906 245.5 -120.039062 245.5 -138.625 C 245.5 -162.375 241.171875 -183.347656 232.515625 -201.546875 C 223.867188 -219.742188 211.863281 -233.941406 196.5 -244.140625 C 181.144531 -254.335938 163.144531 -259.4375 142.5 -259.4375 C 122.101562 -259.4375 104.160156 -254.335938 88.671875 -244.140625 C 73.179688 -233.941406 61.113281 -219.742188 52.46875 -201.546875 C 43.820312 -183.347656 39.5 -162.375 39.5 -138.625 C 39.5 -114.875 43.820312 -93.898438 52.46875 -75.703125 C 61.113281 -57.503906 73.179688 -43.304688 88.671875 -33.109375 C 104.160156 -22.910156 122.101562 -17.8125 142.5 -17.8125 Z M 142.5 -17.8125 "/></g></g></g><g fill="#004030" fill-opacity="1"><g transform="translate(284.997175, 376.664415)"><g><path d="M 78.609375 3.484375 C 67.765625 3.484375 57.757812 1.160156 48.59375 -3.484375 C 39.425781 -8.128906 32.003906 -15.097656 26.328125 -24.390625 C 20.648438 -33.679688 17.8125 -45.039062 17.8125 -58.46875 L 17.8125 -199.03125 L 42.203125 -199.03125 L 42.203125 -69.3125 C 42.203125 -59.5 43.554688 -50.59375 46.265625 -42.59375 C 48.984375 -34.59375 53.757812 -28.269531 60.59375 -23.625 C 67.4375 -18.976562 77.179688 -16.65625 89.828125 -16.65625 C 102.992188 -16.65625 114.160156 -19.300781 123.328125 -24.59375 C 132.492188 -29.882812 139.53125 -36.460938 144.4375 -44.328125 C 149.34375 -52.203125 151.796875 -59.882812 151.796875 -67.375 L 151.796875 -199.03125 L 176.1875 -199.03125 L 176.1875 0 L 151.796875 0 L 151.796875 -34.078125 L 151.015625 -34.078125 C 147.140625 -27.878906 142.101562 -21.941406 135.90625 -16.265625 C 129.71875 -10.585938 121.972656 -5.875 112.671875 -2.125 C 103.378906 1.613281 92.023438 3.484375 78.609375 3.484375 Z M 78.609375 3.484375 "/></g></g></g><g fill="#004030" fill-opacity="1"><g transform="translate(480.158263, 376.664415)"><g><path d="M 34.46875 -240.46875 C 30.851562 -240.46875 27.429688 -241.691406 24.203125 -244.140625 C 20.972656 -246.585938 19.359375 -250.007812 19.359375 -254.40625 C 19.359375 -258.789062 20.972656 -262.207031 24.203125 -264.65625 C 27.429688 -267.113281 30.851562 -268.34375 34.46875 -268.34375 C 38.332031 -268.34375 41.8125 -267.113281 44.90625 -264.65625 C 48.007812 -262.207031 49.5625 -258.789062 49.5625 -254.40625 C 49.5625 -250.007812 48.007812 -246.585938 44.90625 -244.140625 C 41.8125 -241.691406 38.332031 -240.46875 34.46875 -240.46875 Z M 22.453125 0 L 22.453125 -199.03125 L 46.46875 -199.03125 L 46.46875 0 Z M 22.453125 0 "/></g></g></g><g fill="#004030" fill-opacity="1"><g transform="translate(549.084197, 376.664415)"><g><path d="M 19.359375 0 L 19.359375 -199.03125 L 43.375 -199.03125 L 43.375 -164.5625 L 44.140625 -164.5625 C 48.273438 -171.019531 53.375 -177.085938 59.4375 -182.765625 C 65.5 -188.441406 73.175781 -193.148438 82.46875 -196.890625 C 91.769531 -200.640625 103.128906 -202.515625 116.546875 -202.515625 C 127.648438 -202.515625 137.785156 -200.191406 146.953125 -195.546875 C 156.117188 -190.898438 163.472656 -183.992188 169.015625 -174.828125 C 174.566406 -165.660156 177.34375 -154.238281 177.34375 -140.5625 L 177.34375 0 L 152.953125 0 L 152.953125 -129.71875 C 152.953125 -139.53125 151.59375 -148.4375 148.875 -156.4375 C 146.164062 -164.4375 141.390625 -170.757812 134.546875 -175.40625 C 127.710938 -180.050781 117.972656 -182.375 105.328125 -182.375 C 92.421875 -182.375 81.316406 -179.726562 72.015625 -174.4375 C 62.722656 -169.144531 55.625 -162.625 50.71875 -154.875 C 45.820312 -147.132812 43.375 -139.394531 43.375 -131.65625 L 43.375 0 Z M 19.359375 0 "/></g></g></g></g></g><path stroke-linecap="butt" transform="matrix(0.927869, 0.000000000000000471, -0.000000000000000471, 0.927869, 790.54427, 461.255801)" fill="none" stroke-linejoin="miter" d="M -0.00140289 8.501988 L 671.964372 8.501988 " stroke="#004030" stroke-width="17" stroke-opacity="1" stroke-miterlimit="4"/></g></g></svg>